<svg width="87" height="9" viewBox="0 0 87 9" fill="none" xmlns="http://www.w3.org/2000/svg">
<path d="M7.22852 9H0.0976562V0.597656H7.22852V2.2793H1.7793V3.97266H6.80664V5.6543H1.7793V7.31836H7.22852V9ZM15.0098 9H9.13281L8.30078 8.17383V1.45312L9.13281 0.597656H15.0098L15.8418 1.45312V3.11719H14.1719V2.2793H9.98242V7.31836H14.1719V5.86523H12.0566V4.18945H15.8418V8.17383L15.0098 9ZM18.7129 7.31836H22.9023V2.2793H18.7129V7.31836ZM23.7402 9H17.8633L17.0312 8.17383V1.45312L17.8633 0.597656H23.7402L24.5723 1.45312V8.17383L23.7402 9ZM27.4434 4.81055H31.6328V2.2793H27.4434V4.81055ZM33.3027 9H31.6328V8.17383L30.7949 7.31836L29.9512 6.49219H27.4434V9H25.7617V0.597656H32.4707L33.3027 1.45312V5.6543L32.4707 6.49219L33.3027 7.31836V9ZM40.9785 9H39.2969V0.597656H40.9785L43.9082 4.66992L46.8848 0.597656H48.502V9H46.8203V3.33398L44.6289 6.5625H43.2227L40.9785 3.33398V9ZM51.2676 4.81055H55.4512V2.2793H52.9316L51.2676 3.97266V4.81055ZM51.2676 9H49.5859V3.13477L52.0938 0.597656H57.1211V9H55.4512V6.49219H51.2676V9ZM59.998 4.81055H64.1875V2.2793H59.998V4.81055ZM65.8574 9H64.1875V8.17383L63.3496 7.31836L62.5059 6.49219H59.998V9H58.3164V0.597656H65.0254L65.8574 1.45312V5.6543L65.0254 6.49219L65.8574 7.31836V9ZM68.7285 9H67.0469V0.597656H68.7285V3.97266H71.2363L72.918 2.29102V0.597656H74.5879V3.13477L72.918 4.81055L74.5879 6.49219V9H72.918V7.31836L71.2363 5.6543H68.7285V9ZM77.3418 9H75.6602V0.597656H77.3418V9ZM86.084 9H84.4141L80.2246 3.39844V9H78.543V0.597656H80.2246L84.4141 6.19336V0.597656H86.084V9Z" fill="white"/>
</svg>
